<svg width="15" height="12" viewBox="0 0 15 12" fill="none" xmlns="http://www.w3.org/2000/svg">
<path d="M13.125 3.125V2.5L11.25 3.75L9.375 2.5V3.125L11.25 4.375L13.125 3.125ZM13.75 0H1.25C0.5625 0 0 0.5625 0 1.25V10C0 10.6875 0.5625 11.25 1.25 11.25H13.75C14.4375 11.25 14.9937 10.6875 14.9937 10L15 1.25C15 0.5625 14.4375 0 13.75 0ZM5 1.875C6.0375 1.875 6.875 2.7125 6.875 3.75C6.875 4.7875 6.0375 5.625 5 5.625C3.9625 5.625 3.125 4.7875 3.125 3.75C3.125 2.7125 3.9625 1.875 5 1.875ZM8.75 9.375H1.25V8.75C1.25 7.5 3.75 6.8125 5 6.8125C6.25 6.8125 8.75 7.5 8.75 8.75V9.375ZM13.75 5.625H8.75V1.875H13.75V5.625Z" fill="white"/>
</svg>
