<svg width="146" height="73" viewBox="0 0 146 73" fill="none" xmlns="http://www.w3.org/2000/svg">
<path d="M30.24 36.344V50.936C28.896 51.704 27.296 52.312 25.44 52.76C23.584 53.176 21.696 53.384 19.776 53.384C17.024 53.384 14.544 52.952 12.336 52.088C10.16 51.224 8.288 50.04 6.72 48.536C5.152 47 3.952 45.192 3.12 43.112C2.288 41.032 1.872 38.76 1.872 36.296C1.872 33.576 2.352 31.096 3.312 28.856C4.304 26.584 5.632 24.632 7.296 23C8.992 21.368 10.928 20.104 13.104 19.208C15.312 18.28 17.648 17.816 20.112 17.816C21.776 17.816 23.52 18.04 25.344 18.488C27.168 18.904 28.752 19.512 30.096 20.312L27.552 24.584C27.072 24.296 26.512 24.04 25.872 23.816C25.264 23.592 24.624 23.4 23.952 23.24C23.28 23.08 22.608 22.968 21.936 22.904C21.264 22.808 20.624 22.76 20.016 22.76C18.32 22.76 16.688 23.096 15.12 23.768C13.552 24.44 12.176 25.368 10.992 26.552C9.808 27.736 8.864 29.128 8.16 30.728C7.456 32.328 7.104 34.056 7.104 35.912C7.104 37.608 7.408 39.208 8.016 40.712C8.656 42.216 9.536 43.544 10.656 44.696C11.776 45.848 13.12 46.76 14.688 47.432C16.256 48.104 17.984 48.44 19.872 48.44C20.608 48.44 21.472 48.376 22.464 48.248C23.488 48.088 24.464 47.832 25.392 47.48V40.856H18.624V36.344H30.24ZM34.6958 25.256C34.6958 24.488 34.9678 23.848 35.5117 23.336C36.0878 22.824 36.6958 22.568 37.3358 22.568C37.9758 22.568 38.5678 22.824 39.1118 23.336C39.6558 23.848 39.9278 24.488 39.9278 25.256C39.9278 26.024 39.6558 26.664 39.1118 27.176C38.5678 27.656 37.9758 27.896 37.3358 27.896C36.6958 27.896 36.0878 27.656 35.5117 27.176C34.9678 26.664 34.6958 26.024 34.6958 25.256ZM39.3038 53H35.2238V32.936H39.3038V53ZM52.8915 54.2C51.0035 50.616 49.2275 47.08 47.5635 43.592C45.9315 40.072 44.2035 36.52 42.3795 32.936H46.8435C47.9955 35.208 48.9075 37.064 49.5795 38.504C50.2835 39.944 50.8435 41.144 51.2595 42.104C51.6755 43.064 51.9955 43.88 52.2195 44.552C52.4435 45.192 52.6675 45.848 52.8915 46.52C53.1475 45.848 53.3875 45.192 53.6115 44.552C53.8675 43.88 54.1875 43.064 54.5715 42.104C54.9875 41.144 55.5315 39.944 56.2035 38.504C56.9075 37.064 57.8355 35.208 58.9875 32.936H63.4515C61.6275 36.52 59.8675 40.072 58.1715 43.592C56.4755 47.08 54.7155 50.616 52.8915 54.2ZM64.3474 43.16C64.3474 41.688 64.6194 40.312 65.1634 39.032C65.7394 37.72 66.5074 36.584 67.4674 35.624C68.4274 34.632 69.5314 33.848 70.7794 33.272C72.0594 32.696 73.4194 32.408 74.8594 32.408C75.8194 32.408 76.6994 32.536 77.4994 32.792C78.2994 33.016 78.9874 33.304 79.5634 33.656C80.1394 34.008 80.6034 34.376 80.9554 34.76C81.3074 35.144 81.5474 35.48 81.6754 35.768L81.8674 32.936H85.8034V53H81.6754V50.456C81.5154 50.712 81.2594 51.016 80.9074 51.368C80.5554 51.72 80.0914 52.056 79.5154 52.376C78.9714 52.664 78.3154 52.92 77.5474 53.144C76.7794 53.368 75.8994 53.48 74.9074 53.48C73.3714 53.48 71.9474 53.208 70.6354 52.664C69.3554 52.088 68.2514 51.336 67.3234 50.408C66.3954 49.448 65.6594 48.344 65.1154 47.096C64.6034 45.848 64.3474 44.536 64.3474 43.16ZM68.4754 42.92C68.4754 43.848 68.6354 44.712 68.9554 45.512C69.3074 46.312 69.7714 47 70.3474 47.576C70.9234 48.152 71.6114 48.616 72.4114 48.968C73.2114 49.288 74.0914 49.448 75.0514 49.448C76.0114 49.448 76.8914 49.288 77.6914 48.968C78.5234 48.616 79.2274 48.152 79.8034 47.576C80.4114 46.968 80.8754 46.28 81.1954 45.512C81.5154 44.712 81.6754 43.848 81.6754 42.92C81.6754 41.992 81.5154 41.144 81.1954 40.376C80.8754 39.576 80.4114 38.888 79.8034 38.312C79.2274 37.736 78.5234 37.288 77.6914 36.968C76.8914 36.616 76.0114 36.44 75.0514 36.44C74.0914 36.44 73.2114 36.616 72.4114 36.968C71.6114 37.288 70.9234 37.736 70.3474 38.312C69.7714 38.888 69.3074 39.576 68.9554 40.376C68.6354 41.144 68.4754 41.992 68.4754 42.92Z" fill="white"/>
<path d="M93.2955 24.104H97.3755V32.984H102.752V36.632H97.3755V53H93.2955V36.632H89.6955V32.984H93.2955V24.104ZM122.716 50.648C121.756 51.512 120.588 52.2 119.212 52.712C117.836 53.224 116.428 53.48 114.988 53.48C113.516 53.48 112.124 53.208 110.812 52.664C109.532 52.088 108.412 51.336 107.452 50.408C106.492 49.448 105.724 48.328 105.148 47.048C104.604 45.768 104.332 44.408 104.332 42.968C104.332 41.528 104.604 40.168 105.148 38.888C105.724 37.608 106.492 36.488 107.452 35.528C108.412 34.568 109.516 33.816 110.764 33.272C112.044 32.696 113.404 32.408 114.844 32.408C117.116 32.408 119.084 33.096 120.748 34.472C122.444 35.816 123.66 37.592 124.396 39.8C123.404 40.152 122.268 40.584 120.988 41.096C119.708 41.608 118.38 42.152 117.004 42.728C115.628 43.272 114.252 43.816 112.876 44.36C111.5 44.904 110.22 45.4 109.036 45.848C109.58 46.936 110.364 47.816 111.388 48.488C112.444 49.128 113.612 49.448 114.892 49.448C115.756 49.448 116.62 49.288 117.484 48.968C118.38 48.648 119.1 48.216 119.644 47.672L122.716 50.648ZM119.26 38.84C118.876 38.04 118.268 37.448 117.436 37.064C116.604 36.648 115.756 36.44 114.892 36.44C113.964 36.44 113.1 36.616 112.3 36.968C111.532 37.32 110.86 37.8 110.284 38.408C109.708 38.984 109.244 39.656 108.892 40.424C108.572 41.192 108.412 41.976 108.412 42.776C108.412 42.936 108.412 43.048 108.412 43.112C108.444 43.176 108.46 43.224 108.46 43.256C109.292 42.936 110.188 42.584 111.148 42.2C112.14 41.784 113.116 41.384 114.076 41C115.036 40.584 115.964 40.2 116.86 39.848C117.756 39.464 118.556 39.128 119.26 38.84ZM141.383 48.056C141.831 48.6 142.247 49.128 142.631 49.64C143.047 50.12 143.463 50.632 143.879 51.176C142.983 51.88 141.975 52.44 140.855 52.856C139.735 53.272 138.519 53.48 137.207 53.48C135.735 53.48 134.343 53.208 133.031 52.664C131.751 52.088 130.631 51.32 129.671 50.36C128.711 49.4 127.942 48.28 127.367 47C126.823 45.72 126.551 44.36 126.551 42.92C126.551 41.48 126.823 40.12 127.367 38.84C127.942 37.56 128.711 36.456 129.671 35.528C130.631 34.568 131.751 33.816 133.031 33.272C134.343 32.696 135.735 32.408 137.207 32.408C138.551 32.408 139.783 32.616 140.903 33.032C142.055 33.448 143.095 34.008 144.023 34.712L141.383 37.832C140.839 37.384 140.215 37.048 139.511 36.824C138.807 36.568 138.039 36.44 137.207 36.44C136.247 36.44 135.367 36.616 134.567 36.968C133.767 37.288 133.063 37.736 132.455 38.312C131.879 38.888 131.431 39.576 131.111 40.376C130.791 41.144 130.631 41.992 130.631 42.92C130.631 43.848 130.791 44.712 131.111 45.512C131.431 46.28 131.879 46.968 132.455 47.576C133.063 48.152 133.767 48.616 134.567 48.968C135.367 49.288 136.247 49.448 137.207 49.448C138.039 49.448 138.807 49.336 139.511 49.112C140.215 48.856 140.839 48.504 141.383 48.056Z" fill="#938AFF"/>
<path d="M31.38 65.41C31.56 65.41 31.7367 65.39 31.91 65.35C32.09 65.31 32.25 65.2467 32.39 65.16C32.53 65.0667 32.64 64.9467 32.72 64.8C32.8067 64.6467 32.85 64.46 32.85 64.24C32.85 64.0933 32.82 63.9667 32.76 63.86C32.7067 63.7467 32.63 63.6467 32.53 63.56C32.4367 63.4667 32.3233 63.3833 32.19 63.31C32.0633 63.23 31.9233 63.15 31.77 63.07C31.63 62.9967 31.4933 62.9167 31.36 62.83C31.2267 62.7433 31.11 62.6433 31.01 62.53C30.91 62.41 30.8267 62.27 30.76 62.11C30.7 61.9433 30.67 61.7433 30.67 61.51C30.67 60.97 30.8567 60.53 31.23 60.19C31.61 59.8433 32.1833 59.67 32.95 59.67C33.1167 59.67 33.28 59.6833 33.44 59.71C33.6 59.7367 33.7433 59.77 33.87 59.81C34.0033 59.85 34.12 59.8933 34.22 59.94C34.32 59.98 34.3967 60.0167 34.45 60.05L34.06 60.71C33.96 60.6233 33.8 60.55 33.58 60.49C33.36 60.4233 33.1 60.39 32.8 60.39C32.6133 60.39 32.44 60.41 32.28 60.45C32.1267 60.49 31.99 60.5533 31.87 60.64C31.7567 60.72 31.6667 60.8267 31.6 60.96C31.5333 61.0933 31.5 61.25 31.5 61.43C31.5 61.5833 31.5233 61.7133 31.57 61.82C31.6167 61.9267 31.68 62.02 31.76 62.1C31.84 62.18 31.9367 62.2533 32.05 62.32C32.17 62.3867 32.3 62.4567 32.44 62.53C32.6133 62.6233 32.7767 62.7167 32.93 62.81C33.0833 62.8967 33.2133 63.0033 33.32 63.13C33.4333 63.25 33.52 63.3933 33.58 63.56C33.6467 63.7267 33.68 63.9267 33.68 64.16C33.68 64.4867 33.62 64.7733 33.5 65.02C33.3867 65.2667 33.2233 65.4733 33.01 65.64C32.8033 65.8 32.5533 65.92 32.26 66C31.9667 66.0867 31.64 66.13 31.28 66.13C30.82 66.13 30.4433 66.0767 30.15 65.97C29.8567 65.8633 29.6533 65.77 29.54 65.69L29.92 65.01C30.0333 65.0833 30.21 65.17 30.45 65.27C30.69 65.3633 31 65.41 31.38 65.41ZM35.62 63.56C36.02 63.5533 36.38 63.5367 36.7 63.51C37.02 63.4767 37.29 63.42 37.51 63.34C37.7367 63.26 37.91 63.15 38.03 63.01C38.15 62.8633 38.21 62.68 38.21 62.46C38.21 62.4067 38.1967 62.35 38.17 62.29C38.15 62.23 38.11 62.1733 38.05 62.12C37.9967 62.0667 37.92 62.0233 37.82 61.99C37.72 61.9567 37.5967 61.94 37.45 61.94C37.2233 61.94 37.01 61.9867 36.81 62.08C36.6167 62.1667 36.44 62.2867 36.28 62.44C36.12 62.5867 35.9833 62.7567 35.87 62.95C35.7633 63.1433 35.68 63.3467 35.62 63.56ZM36.63 66.12C36.3033 66.12 36.02 66.0733 35.78 65.98C35.54 65.88 35.34 65.75 35.18 65.59C35.02 65.43 34.9 65.2467 34.82 65.04C34.7467 64.8267 34.71 64.6067 34.71 64.38C34.71 63.96 34.7733 63.56 34.9 63.18C35.0333 62.8 35.2233 62.47 35.47 62.19C35.7167 61.9033 36.0133 61.6767 36.36 61.51C36.7133 61.3367 37.11 61.25 37.55 61.25C37.81 61.25 38.0333 61.2833 38.22 61.35C38.4067 61.41 38.56 61.4933 38.68 61.6C38.8 61.7 38.8867 61.82 38.94 61.96C39 62.1 39.03 62.2467 39.03 62.4C39.03 62.82 38.9233 63.1467 38.71 63.38C38.4967 63.6133 38.22 63.79 37.88 63.91C37.54 64.0233 37.16 64.0967 36.74 64.13C36.3267 64.1633 35.92 64.1867 35.52 64.2C35.48 64.62 35.59 64.9267 35.85 65.12C36.11 65.3067 36.4533 65.4 36.88 65.4C37.02 65.4 37.1633 65.39 37.31 65.37C37.4633 65.3433 37.6033 65.3167 37.73 65.29C37.8633 65.2567 37.98 65.2233 38.08 65.19C38.18 65.15 38.25 65.1167 38.29 65.09L38.36 65.79C38.2333 65.8567 38.0267 65.9267 37.74 66C37.4533 66.08 37.0833 66.12 36.63 66.12ZM39.89 66L40.95 61.6C41.6567 61.3733 42.3667 61.26 43.08 61.26C43.2867 61.26 43.47 61.27 43.63 61.29C43.79 61.3033 43.9867 61.3333 44.22 61.38L43.91 62.11C43.81 62.0833 43.7167 62.0633 43.63 62.05C43.55 62.03 43.4733 62.0167 43.4 62.01C43.3267 61.9967 43.25 61.99 43.17 61.99C43.0967 61.9833 43.01 61.98 42.91 61.98C42.7033 61.98 42.49 61.9933 42.27 62.02C42.0567 62.0467 41.8433 62.0867 41.63 62.14L40.71 66H39.89ZM45.93 66C45.7833 65.3867 45.6533 64.6767 45.54 63.87C45.4267 63.0567 45.36 62.22 45.34 61.36H46.18C46.1867 61.6533 46.2 61.9667 46.22 62.3C46.24 62.6267 46.2667 62.9567 46.3 63.29C46.3333 63.6167 46.37 63.9333 46.41 64.24C46.45 64.5467 46.4933 64.8233 46.54 65.07C46.72 64.8433 46.9033 64.5767 47.09 64.27C47.2833 63.9633 47.47 63.6433 47.65 63.31C47.83 62.9767 47.9933 62.64 48.14 62.3C48.2867 61.96 48.4067 61.6467 48.5 61.36H49.34C49.2067 61.7533 49.04 62.16 48.84 62.58C48.64 63 48.42 63.4167 48.18 63.83C47.9467 64.2367 47.7 64.6267 47.44 65C47.1867 65.3733 46.9367 65.7067 46.69 66H45.93ZM52.05 63.95C52.0167 64.0833 51.9867 64.21 51.96 64.33C51.94 64.45 51.93 64.5667 51.93 64.68C51.93 64.8667 51.9767 65.0233 52.07 65.15C52.17 65.27 52.3567 65.33 52.63 65.33C52.7433 65.33 52.8533 65.3233 52.96 65.31C53.0667 65.29 53.1667 65.2667 53.26 65.24L53.21 65.94C53.1633 65.9533 53.0767 65.9733 52.95 66C52.83 66.02 52.6567 66.03 52.43 66.03C52.1833 66.03 51.9733 65.9967 51.8 65.93C51.6333 65.8633 51.4967 65.7733 51.39 65.66C51.29 65.5467 51.2167 65.4133 51.17 65.26C51.13 65.1067 51.11 64.94 51.11 64.76C51.11 64.62 51.12 64.4767 51.14 64.33C51.1667 64.1833 51.1967 64.0333 51.23 63.88L51.68 62.05H50.34L50.5 61.36H52.66L52.05 63.95ZM52.3 60.64C52.1267 60.64 51.9833 60.59 51.87 60.49C51.7567 60.39 51.7 60.2433 51.7 60.05C51.7 59.8167 51.7733 59.6333 51.92 59.5C52.0667 59.3667 52.23 59.3 52.41 59.3C52.5833 59.3 52.7267 59.3533 52.84 59.46C52.96 59.5667 53.02 59.7167 53.02 59.91C53.02 60.0233 52.9967 60.1233 52.95 60.21C52.91 60.2967 52.8533 60.3733 52.78 60.44C52.7133 60.5067 52.6367 60.5567 52.55 60.59C52.47 60.6233 52.3867 60.64 52.3 60.64ZM56.6 66.34C56.72 66.4067 56.81 66.4767 56.87 66.55C56.93 66.63 56.96 66.74 56.96 66.88C56.96 67.14 56.8667 67.34 56.68 67.48C56.4933 67.62 56.24 67.69 55.92 67.69C55.7467 67.69 55.6 67.6767 55.48 67.65C55.3667 67.6233 55.2733 67.59 55.2 67.55L55.4 67.06C55.4533 67.0867 55.5167 67.11 55.59 67.13C55.67 67.15 55.7667 67.16 55.88 67.16C55.98 67.16 56.06 67.1433 56.12 67.11C56.1867 67.0833 56.22 67.0267 56.22 66.94C56.22 66.84 56.18 66.7667 56.1 66.72C56.0267 66.6733 55.9467 66.64 55.86 66.62C55.9 66.5467 55.9533 66.46 56.02 66.36C56.0933 66.26 56.16 66.1633 56.22 66.07C55.7133 65.9767 55.3333 65.7767 55.08 65.47C54.8333 65.1633 54.71 64.7867 54.71 64.34C54.71 63.9333 54.7767 63.5433 54.91 63.17C55.05 62.7967 55.25 62.4667 55.51 62.18C55.7767 61.8933 56.1 61.6667 56.48 61.5C56.8667 61.3267 57.31 61.24 57.81 61.24C58.0833 61.24 58.3233 61.26 58.53 61.3C58.7367 61.3333 58.93 61.3867 59.11 61.46L58.8 62.16C58.6867 62.1067 58.55 62.0567 58.39 62.01C58.2367 61.9633 58.02 61.94 57.74 61.94C57.4 61.94 57.0933 62.0067 56.82 62.14C56.5467 62.2667 56.3133 62.44 56.12 62.66C55.9333 62.8733 55.79 63.12 55.69 63.4C55.59 63.6733 55.54 63.96 55.54 64.26C55.54 64.4133 55.56 64.56 55.6 64.7C55.64 64.8333 55.7133 64.9533 55.82 65.06C55.9267 65.1667 56.07 65.25 56.25 65.31C56.4367 65.37 56.67 65.4 56.95 65.4C57.0967 65.4 57.24 65.39 57.38 65.37C57.52 65.35 57.65 65.3233 57.77 65.29C57.89 65.2567 57.9933 65.2233 58.08 65.19C58.1733 65.1567 58.2433 65.1233 58.29 65.09L58.36 65.79C58.24 65.8633 58.0433 65.9367 57.77 66.01C57.5033 66.0833 57.18 66.12 56.8 66.12H56.76L56.6 66.34ZM61.37 66.11C60.8767 66.11 60.49 65.9667 60.21 65.68C59.9367 65.3933 59.8 64.9967 59.8 64.49C59.8 64.1433 59.8467 63.78 59.94 63.4C60.04 63.02 60.1967 62.67 60.41 62.35C60.63 62.03 60.91 61.7667 61.25 61.56C61.59 61.3533 62 61.25 62.48 61.25C62.9733 61.25 63.3567 61.3933 63.63 61.68C63.91 61.9667 64.05 62.3633 64.05 62.87C64.05 63.2167 64 63.58 63.9 63.96C63.8067 64.34 63.65 64.69 63.43 65.01C63.2167 65.33 62.94 65.5933 62.6 65.8C62.26 66.0067 61.85 66.11 61.37 66.11ZM61.51 65.37C61.7767 65.37 62.0167 65.2967 62.23 65.15C62.4433 64.9967 62.6233 64.8033 62.77 64.57C62.9167 64.3367 63.0267 64.0767 63.1 63.79C63.18 63.4967 63.22 63.2133 63.22 62.94C63.22 62.64 63.1533 62.4067 63.02 62.24C62.8867 62.0667 62.66 61.98 62.34 61.98C62.0733 61.98 61.8333 62.0567 61.62 62.21C61.4067 62.3567 61.2267 62.55 61.08 62.79C60.9333 63.0233 60.82 63.2867 60.74 63.58C60.6667 63.8667 60.63 64.1467 60.63 64.42C60.63 64.72 60.6967 64.9533 60.83 65.12C60.9633 65.2867 61.19 65.37 61.51 65.37ZM66.42 65.42C66.5667 65.42 66.71 65.41 66.85 65.39C66.9967 65.3633 67.1267 65.3233 67.24 65.27C67.3533 65.2167 67.4433 65.1433 67.51 65.05C67.5833 64.9567 67.62 64.8433 67.62 64.71C67.62 64.5233 67.54 64.3767 67.38 64.27C67.2267 64.1633 67.01 64.0433 66.73 63.91C66.5967 63.8433 66.4667 63.7767 66.34 63.71C66.2133 63.6433 66.1 63.5667 66 63.48C65.9067 63.3933 65.83 63.29 65.77 63.17C65.71 63.0433 65.68 62.8933 65.68 62.72C65.68 62.2733 65.8533 61.9167 66.2 61.65C66.5467 61.3833 67.0367 61.25 67.67 61.25C67.9833 61.25 68.2533 61.2767 68.48 61.33C68.7133 61.3833 68.8867 61.44 69 61.5L68.69 62.2C68.59 62.14 68.4367 62.0833 68.23 62.03C68.03 61.9767 67.8033 61.95 67.55 61.95C67.4167 61.95 67.2833 61.9633 67.15 61.99C67.0233 62.01 66.91 62.0467 66.81 62.1C66.71 62.1533 66.63 62.2233 66.57 62.31C66.51 62.3967 66.48 62.5067 66.48 62.64C66.48 62.8 66.56 62.9367 66.72 63.05C66.8867 63.1567 67.0933 63.2633 67.34 63.37C67.4933 63.43 67.6367 63.4967 67.77 63.57C67.9033 63.6433 68.0167 63.73 68.11 63.83C68.21 63.9233 68.2867 64.0333 68.34 64.16C68.3933 64.2867 68.42 64.4367 68.42 64.61C68.42 64.8633 68.37 65.0867 68.27 65.28C68.17 65.4667 68.03 65.6233 67.85 65.75C67.67 65.87 67.4533 65.96 67.2 66.02C66.9533 66.0867 66.68 66.12 66.38 66.12C66 66.12 65.67 66.0767 65.39 65.99C65.1167 65.9033 64.9167 65.8233 64.79 65.75L65.12 65.05C65.2267 65.1233 65.3933 65.2033 65.62 65.29C65.8467 65.3767 66.1133 65.42 66.42 65.42ZM78.42 65.08C78.42 65.22 78.4333 65.36 78.46 65.5C78.4867 65.6333 78.5267 65.7833 78.58 65.95L77.85 66.05C77.8167 65.99 77.7867 65.92 77.76 65.84C77.7333 65.76 77.7133 65.6733 77.7 65.58C77.5667 65.7 77.3867 65.82 77.16 65.94C76.94 66.0533 76.66 66.11 76.32 66.11C75.8 66.11 75.4167 65.9567 75.17 65.65C74.9233 65.3433 74.8 64.9433 74.8 64.45C74.8 64.05 74.8667 63.66 75 63.28C75.1333 62.8933 75.3333 62.5533 75.6 62.26C75.8667 61.96 76.2 61.72 76.6 61.54C77 61.3533 77.4633 61.26 77.99 61.26C78.1433 61.26 78.2967 61.27 78.45 61.29L78.95 59.21L79.8 59.07L78.54 64.29C78.5067 64.43 78.4767 64.5633 78.45 64.69C78.43 64.81 78.42 64.94 78.42 65.08ZM76.48 65.43C76.7333 65.43 76.9567 65.3767 77.15 65.27C77.35 65.1633 77.5167 65.0367 77.65 64.89C77.6567 64.79 77.6667 64.6767 77.68 64.55C77.7 64.4233 77.7233 64.3033 77.75 64.19L78.3 62C78.2667 61.9867 78.2 61.9767 78.1 61.97C78.0067 61.9567 77.9333 61.95 77.88 61.95C77.54 61.95 77.23 62.0167 76.95 62.15C76.6767 62.2833 76.44 62.4633 76.24 62.69C76.0467 62.91 75.8967 63.1667 75.79 63.46C75.6833 63.7467 75.63 64.0467 75.63 64.36C75.63 64.5133 75.6433 64.6567 75.67 64.79C75.6967 64.9167 75.74 65.0267 75.8 65.12C75.8667 65.2133 75.9533 65.29 76.06 65.35C76.1733 65.4033 76.3133 65.43 76.48 65.43ZM80.62 63.56C81.02 63.5533 81.38 63.5367 81.7 63.51C82.02 63.4767 82.29 63.42 82.51 63.34C82.7367 63.26 82.91 63.15 83.03 63.01C83.15 62.8633 83.21 62.68 83.21 62.46C83.21 62.4067 83.1967 62.35 83.17 62.29C83.15 62.23 83.11 62.1733 83.05 62.12C82.9967 62.0667 82.92 62.0233 82.82 61.99C82.72 61.9567 82.5967 61.94 82.45 61.94C82.2233 61.94 82.01 61.9867 81.81 62.08C81.6167 62.1667 81.44 62.2867 81.28 62.44C81.12 62.5867 80.9833 62.7567 80.87 62.95C80.7633 63.1433 80.68 63.3467 80.62 63.56ZM81.63 66.12C81.3033 66.12 81.02 66.0733 80.78 65.98C80.54 65.88 80.34 65.75 80.18 65.59C80.02 65.43 79.9 65.2467 79.82 65.04C79.7467 64.8267 79.71 64.6067 79.71 64.38C79.71 63.96 79.7733 63.56 79.9 63.18C80.0333 62.8 80.2233 62.47 80.47 62.19C80.7167 61.9033 81.0133 61.6767 81.36 61.51C81.7133 61.3367 82.11 61.25 82.55 61.25C82.81 61.25 83.0333 61.2833 83.22 61.35C83.4067 61.41 83.56 61.4933 83.68 61.6C83.8 61.7 83.8867 61.82 83.94 61.96C84 62.1 84.03 62.2467 84.03 62.4C84.03 62.82 83.9233 63.1467 83.71 63.38C83.4967 63.6133 83.22 63.79 82.88 63.91C82.54 64.0233 82.16 64.0967 81.74 64.13C81.3267 64.1633 80.92 64.1867 80.52 64.2C80.48 64.62 80.59 64.9267 80.85 65.12C81.11 65.3067 81.4533 65.4 81.88 65.4C82.02 65.4 82.1633 65.39 82.31 65.37C82.4633 65.3433 82.6033 65.3167 82.73 65.29C82.8633 65.2567 82.98 65.2233 83.08 65.19C83.18 65.15 83.25 65.1167 83.29 65.09L83.36 65.79C83.2333 65.8567 83.0267 65.9267 82.74 66C82.4533 66.08 82.0833 66.12 81.63 66.12ZM93.05 60.51L91.89 65.3H93.09L92.92 66H89.71L89.88 65.3H91.07L92.22 60.51H91.03L91.2 59.81H94.41L94.24 60.51H93.05ZM95.45 66H94.63L95.7 61.53C95.9733 61.45 96.2667 61.3867 96.58 61.34C96.8933 61.2867 97.1767 61.26 97.43 61.26C97.6967 61.26 97.9267 61.2967 98.12 61.37C98.3133 61.4433 98.47 61.5467 98.59 61.68C98.71 61.8067 98.7967 61.96 98.85 62.14C98.91 62.32 98.94 62.5167 98.94 62.73C98.94 62.87 98.9267 63.0167 98.9 63.17C98.8733 63.3167 98.84 63.4667 98.8 63.62L98.23 66H97.41L97.94 63.8C97.98 63.6333 98.02 63.4667 98.06 63.3C98.1 63.1267 98.12 62.96 98.12 62.8C98.12 62.5667 98.0533 62.3733 97.92 62.22C97.7867 62.06 97.5433 61.98 97.19 61.98C97.0367 61.98 96.8867 61.99 96.74 62.01C96.6 62.0233 96.4833 62.0467 96.39 62.08L95.45 66ZM102.44 62.05L101.63 65.82C101.557 66.1533 101.47 66.4367 101.37 66.67C101.277 66.91 101.157 67.1033 101.01 67.25C100.863 67.4033 100.683 67.5133 100.47 67.58C100.263 67.6467 100.017 67.68 99.73 67.68C99.63 67.68 99.5167 67.6667 99.39 67.64C99.2633 67.6133 99.1633 67.5733 99.09 67.52L99.28 66.83C99.42 66.9167 99.6133 66.96 99.86 66.96C100.127 66.96 100.333 66.8567 100.48 66.65C100.627 66.4433 100.737 66.17 100.81 65.83L101.61 62.05H100.61L100.78 61.36H101.76L101.85 60.94C101.977 60.34 102.2 59.88 102.52 59.56C102.847 59.2333 103.33 59.07 103.97 59.07C104.177 59.07 104.373 59.09 104.56 59.13C104.747 59.17 104.887 59.2167 104.98 59.27L104.65 59.93C104.597 59.9033 104.513 59.8733 104.4 59.84C104.293 59.8 104.123 59.78 103.89 59.78C103.697 59.78 103.53 59.81 103.39 59.87C103.257 59.9233 103.14 60.0033 103.04 60.11C102.947 60.21 102.87 60.3333 102.81 60.48C102.757 60.62 102.71 60.7767 102.67 60.95L102.58 61.36H104.46L104.29 62.05H102.44ZM106.37 66.11C105.877 66.11 105.49 65.9667 105.21 65.68C104.937 65.3933 104.8 64.9967 104.8 64.49C104.8 64.1433 104.847 63.78 104.94 63.4C105.04 63.02 105.197 62.67 105.41 62.35C105.63 62.03 105.91 61.7667 106.25 61.56C106.59 61.3533 107 61.25 107.48 61.25C107.973 61.25 108.357 61.3933 108.63 61.68C108.91 61.9667 109.05 62.3633 109.05 62.87C109.05 63.2167 109 63.58 108.9 63.96C108.807 64.34 108.65 64.69 108.43 65.01C108.217 65.33 107.94 65.5933 107.6 65.8C107.26 66.0067 106.85 66.11 106.37 66.11ZM106.51 65.37C106.777 65.37 107.017 65.2967 107.23 65.15C107.443 64.9967 107.623 64.8033 107.77 64.57C107.917 64.3367 108.027 64.0767 108.1 63.79C108.18 63.4967 108.22 63.2133 108.22 62.94C108.22 62.64 108.153 62.4067 108.02 62.24C107.887 62.0667 107.66 61.98 107.34 61.98C107.073 61.98 106.833 62.0567 106.62 62.21C106.407 62.3567 106.227 62.55 106.08 62.79C105.933 63.0233 105.82 63.2867 105.74 63.58C105.667 63.8667 105.63 64.1467 105.63 64.42C105.63 64.72 105.697 64.9533 105.83 65.12C105.963 65.2867 106.19 65.37 106.51 65.37ZM109.89 66L110.95 61.6C111.657 61.3733 112.367 61.26 113.08 61.26C113.287 61.26 113.47 61.27 113.63 61.29C113.79 61.3033 113.987 61.3333 114.22 61.38L113.91 62.11C113.81 62.0833 113.717 62.0633 113.63 62.05C113.55 62.03 113.473 62.0167 113.4 62.01C113.327 61.9967 113.25 61.99 113.17 61.99C113.097 61.9833 113.01 61.98 112.91 61.98C112.703 61.98 112.49 61.9933 112.27 62.02C112.057 62.0467 111.843 62.0867 111.63 62.14L110.71 66H109.89ZM115.39 61.49C115.81 61.3367 116.193 61.26 116.54 61.26C116.727 61.26 116.89 61.29 117.03 61.35C117.177 61.4033 117.293 61.4867 117.38 61.6C117.707 61.3733 118.027 61.26 118.34 61.26C118.493 61.26 118.63 61.29 118.75 61.35C118.877 61.41 118.977 61.5 119.05 61.62C119.13 61.74 119.18 61.89 119.2 62.07C119.22 62.25 119.2 62.46 119.14 62.7L118.36 66H117.61L118.4 62.68C118.46 62.44 118.457 62.2567 118.39 62.13C118.323 62.0033 118.213 61.94 118.06 61.94C117.893 61.94 117.723 62.0233 117.55 62.19C117.55 62.2633 117.547 62.3433 117.54 62.43C117.533 62.5167 117.517 62.6067 117.49 62.7L117.13 64.21H116.38L116.75 62.69C116.81 62.4567 116.82 62.2733 116.78 62.14C116.74 62.0067 116.623 61.94 116.43 61.94C116.31 61.94 116.17 61.97 116.01 62.03L115.05 66H114.31L115.39 61.49ZM122.76 66.05C122.727 65.9833 122.697 65.9133 122.67 65.84C122.643 65.76 122.623 65.6733 122.61 65.58C122.477 65.7 122.29 65.82 122.05 65.94C121.817 66.0533 121.54 66.11 121.22 66.11C120.7 66.11 120.317 65.9533 120.07 65.64C119.83 65.3267 119.71 64.93 119.71 64.45C119.71 64.05 119.777 63.66 119.91 63.28C120.043 62.9 120.243 62.56 120.51 62.26C120.783 61.96 121.123 61.72 121.53 61.54C121.937 61.3533 122.41 61.26 122.95 61.26C123.03 61.26 123.12 61.2633 123.22 61.27C123.327 61.2767 123.433 61.29 123.54 61.31C123.647 61.33 123.75 61.3567 123.85 61.39C123.957 61.4167 124.05 61.45 124.13 61.49L123.45 64.29C123.417 64.43 123.387 64.5633 123.36 64.69C123.34 64.81 123.33 64.94 123.33 65.08C123.33 65.22 123.343 65.36 123.37 65.5C123.397 65.6333 123.437 65.7833 123.49 65.95L122.76 66.05ZM121.39 65.43C121.643 65.43 121.867 65.3767 122.06 65.27C122.26 65.1633 122.427 65.0367 122.56 64.89C122.567 64.79 122.577 64.6767 122.59 64.55C122.61 64.4233 122.633 64.3033 122.66 64.19L123.21 62C123.177 61.9867 123.113 61.9767 123.02 61.97C122.927 61.9567 122.853 61.95 122.8 61.95C122.46 61.95 122.15 62.0167 121.87 62.15C121.597 62.2833 121.36 62.4633 121.16 62.69C120.96 62.91 120.807 63.1667 120.7 63.46C120.593 63.7467 120.54 64.0467 120.54 64.36C120.54 64.5133 120.553 64.6567 120.58 64.79C120.607 64.9167 120.65 65.0267 120.71 65.12C120.777 65.2133 120.863 65.29 120.97 65.35C121.083 65.4033 121.223 65.43 121.39 65.43ZM124.11 59.74L122.6 60.88L122.25 60.44L123.66 59.09L124.11 59.74ZM128.39 65.87C128.197 65.9367 127.993 65.9933 127.78 66.04C127.573 66.0867 127.353 66.11 127.12 66.11C126.927 66.11 126.747 66.09 126.58 66.05C126.42 66.01 126.277 65.9467 126.15 65.86C126.03 65.7667 125.933 65.6433 125.86 65.49C125.793 65.3367 125.76 65.1433 125.76 64.91C125.76 64.7633 125.77 64.61 125.79 64.45C125.817 64.29 125.85 64.1267 125.89 63.96L126.36 62.05H125.38L125.54 61.36H126.53L126.84 60.06L127.7 59.92L127.35 61.36H129.13L128.97 62.05H127.18L126.71 64.04C126.677 64.1667 126.647 64.29 126.62 64.41C126.593 64.53 126.58 64.6467 126.58 64.76C126.58 65.0133 126.637 65.1833 126.75 65.27C126.87 65.35 127.037 65.39 127.25 65.39C127.457 65.39 127.657 65.37 127.85 65.33C128.05 65.2833 128.237 65.2267 128.41 65.16L128.39 65.87ZM132.05 63.95C132.017 64.0833 131.987 64.21 131.96 64.33C131.94 64.45 131.93 64.5667 131.93 64.68C131.93 64.8667 131.977 65.0233 132.07 65.15C132.17 65.27 132.357 65.33 132.63 65.33C132.743 65.33 132.853 65.3233 132.96 65.31C133.067 65.29 133.167 65.2667 133.26 65.24L133.21 65.94C133.163 65.9533 133.077 65.9733 132.95 66C132.83 66.02 132.657 66.03 132.43 66.03C132.183 66.03 131.973 65.9967 131.8 65.93C131.633 65.8633 131.497 65.7733 131.39 65.66C131.29 65.5467 131.217 65.4133 131.17 65.26C131.13 65.1067 131.11 64.94 131.11 64.76C131.11 64.62 131.12 64.4767 131.14 64.33C131.167 64.1833 131.197 64.0333 131.23 63.88L131.68 62.05H130.34L130.5 61.36H132.66L132.05 63.95ZM132.3 60.64C132.127 60.64 131.983 60.59 131.87 60.49C131.757 60.39 131.7 60.2433 131.7 60.05C131.7 59.8167 131.773 59.6333 131.92 59.5C132.067 59.3667 132.23 59.3 132.41 59.3C132.583 59.3 132.727 59.3533 132.84 59.46C132.96 59.5667 133.02 59.7167 133.02 59.91C133.02 60.0233 132.997 60.1233 132.95 60.21C132.91 60.2967 132.853 60.3733 132.78 60.44C132.713 60.5067 132.637 60.5567 132.55 60.59C132.47 60.6233 132.387 60.64 132.3 60.64ZM134.71 64.34C134.71 63.9333 134.777 63.5433 134.91 63.17C135.05 62.7967 135.25 62.4667 135.51 62.18C135.777 61.8933 136.1 61.6667 136.48 61.5C136.867 61.3267 137.31 61.24 137.81 61.24C138.083 61.24 138.323 61.26 138.53 61.3C138.737 61.3333 138.93 61.3867 139.11 61.46L138.8 62.16C138.687 62.1067 138.55 62.0567 138.39 62.01C138.237 61.9633 138.02 61.94 137.74 61.94C137.4 61.94 137.093 62.0067 136.82 62.14C136.547 62.2667 136.313 62.44 136.12 62.66C135.933 62.8733 135.79 63.12 135.69 63.4C135.59 63.6733 135.54 63.96 135.54 64.26C135.54 64.4133 135.56 64.56 135.6 64.7C135.64 64.8333 135.713 64.9533 135.82 65.06C135.927 65.1667 136.07 65.25 136.25 65.31C136.437 65.37 136.67 65.4 136.95 65.4C137.097 65.4 137.24 65.39 137.38 65.37C137.52 65.35 137.65 65.3233 137.77 65.29C137.89 65.2567 137.993 65.2233 138.08 65.19C138.173 65.1567 138.243 65.1233 138.29 65.09L138.36 65.79C138.24 65.8633 138.043 65.9367 137.77 66.01C137.503 66.0833 137.18 66.12 136.8 66.12C136.107 66.12 135.583 65.9533 135.23 65.62C134.883 65.2867 134.71 64.86 134.71 64.34ZM142.76 66.05C142.727 65.9833 142.697 65.9133 142.67 65.84C142.643 65.76 142.623 65.6733 142.61 65.58C142.477 65.7 142.29 65.82 142.05 65.94C141.817 66.0533 141.54 66.11 141.22 66.11C140.7 66.11 140.317 65.9533 140.07 65.64C139.83 65.3267 139.71 64.93 139.71 64.45C139.71 64.05 139.777 63.66 139.91 63.28C140.043 62.9 140.243 62.56 140.51 62.26C140.783 61.96 141.123 61.72 141.53 61.54C141.937 61.3533 142.41 61.26 142.95 61.26C143.03 61.26 143.12 61.2633 143.22 61.27C143.327 61.2767 143.433 61.29 143.54 61.31C143.647 61.33 143.75 61.3567 143.85 61.39C143.957 61.4167 144.05 61.45 144.13 61.49L143.45 64.29C143.417 64.43 143.387 64.5633 143.36 64.69C143.34 64.81 143.33 64.94 143.33 65.08C143.33 65.22 143.343 65.36 143.37 65.5C143.397 65.6333 143.437 65.7833 143.49 65.95L142.76 66.05ZM141.39 65.43C141.643 65.43 141.867 65.3767 142.06 65.27C142.26 65.1633 142.427 65.0367 142.56 64.89C142.567 64.79 142.577 64.6767 142.59 64.55C142.61 64.4233 142.633 64.3033 142.66 64.19L143.21 62C143.177 61.9867 143.113 61.9767 143.02 61.97C142.927 61.9567 142.853 61.95 142.8 61.95C142.46 61.95 142.15 62.0167 141.87 62.15C141.597 62.2833 141.36 62.4633 141.16 62.69C140.96 62.91 140.807 63.1667 140.7 63.46C140.593 63.7467 140.54 64.0467 140.54 64.36C140.54 64.5133 140.553 64.6567 140.58 64.79C140.607 64.9167 140.65 65.0267 140.71 65.12C140.777 65.2133 140.863 65.29 140.97 65.35C141.083 65.4033 141.223 65.43 141.39 65.43Z" fill="#FCFCFC"/>
<rect x="5" y="71" width="141" height="2" rx="1" fill="#938AFF"/>
<rect x="5" y="71" width="141" height="2" rx="1" fill="url(#paint0_linear)"/>
<defs>
<linearGradient id="paint0_linear" x1="31" y1="72" x2="84.5" y2="72" gradientUnits="userSpaceOnUse">
<stop stop-color="white"/>
<stop offset="1" stop-color="white" stop-opacity="0"/>
</linearGradient>
</defs>
</svg>
