<svg width="12" height="12" viewBox="0 0 12 12" fill="none" xmlns="http://www.w3.org/2000/svg">
<path d="M5.33333 9.33333C5.33333 9.7 5.63333 10 6 10C6.36667 10 6.66667 9.7 6.66667 9.33333C6.66667 8.96667 6.36667 8.66667 6 8.66667C5.63333 8.66667 5.33333 8.96667 5.33333 9.33333ZM5.33333 0V2.66667H6.66667V1.38667C8.92667 1.71333 10.6667 3.64667 10.6667 6C10.6667 8.58 8.58 10.6667 6 10.6667C3.42 10.6667 1.33333 8.58 1.33333 6C1.33333 4.88 1.72667 3.85333 2.38667 3.05333L6 6.66667L6.94 5.72667L2.40667 1.19333V1.20667C0.946667 2.3 0 4.03333 0 6C0 9.31333 2.68 12 6 12C9.31333 12 12 9.31333 12 6C12 2.68667 9.31333 0 6 0H5.33333ZM10 6C10 5.63333 9.7 5.33333 9.33333 5.33333C8.96667 5.33333 8.66667 5.63333 8.66667 6C8.66667 6.36667 8.96667 6.66667 9.33333 6.66667C9.7 6.66667 10 6.36667 10 6ZM2 6C2 6.36667 2.3 6.66667 2.66667 6.66667C3.03333 6.66667 3.33333 6.36667 3.33333 6C3.33333 5.63333 3.03333 5.33333 2.66667 5.33333C2.3 5.33333 2 5.63333 2 6Z" fill="white"/>
</svg>
